<svg width="900" height="620" viewBox="0 0 900 620" fill="none" xmlns="http://www.w3.org/2000/svg">
  <rect width="900" height="620" fill="#F4E8D8"/>
  <rect x="42" y="42" width="816" height="536" rx="24" fill="#FFF9F0" stroke="#D9C3AB"/>
  <circle cx="705" cy="168" r="94" fill="#EBD3BF"/>
  <circle cx="732" cy="140" r="14" fill="#A63F1D"/>
  <rect x="164" y="150" width="572" height="322" rx="12" fill="#FAF4EA" stroke="#E2D4C4"/>
  <path d="M235 419C285 363 329 334 366 331C403 328 441 347 480 389C515 426 549 441 581 434C617 426 649 391 675 329" stroke="#1F1A15" stroke-width="12" stroke-linecap="round"/>
  <path d="M283 421L329 359L361 369L333 429L283 421Z" fill="#A63F1D"/>
  <path d="M441 241L472 203L541 260L510 298L441 241Z" fill="#1F1A15"/>
  <path d="M498 192L545 137" stroke="#A63F1D" stroke-width="12" stroke-linecap="round"/>
  <path d="M233 500H672" stroke="#D7C5B3" stroke-width="8" stroke-linecap="round"/>
  <text x="96" y="96" fill="#6E5B4E" font-family="Trebuchet MS, sans-serif" font-size="30" font-weight="700">Iaido Summer Camp Demo</text>
</svg>
